<svg xmlns="http://www.w3.org/2000/svg" viewBox="309.50438435068065 105.67404790737318 312.55913311891084 139.67460367898832" width="312.55913311891084" height="139.67460367898832">
  <path d="M367.78,126.32Q367.78,126.32,367.15,129.45Q366.53,132.58,365.64,134.87Q364.74,137.17,364.21,139.25Q363.68,141.32,363.22,143.96Q362.75,146.61,362.00,149.43Q361.25,152.25,360.44,155.09Q359.63,157.94,358.81,160.79Q357.99,163.64,357.47,166.18Q356.95,168.72,356.21,171.51Q355.46,174.30,354.66,177.14Q353.85,179.97,352.73,183.14Q351.61,186.30,350.72,188.93Q349.82,191.56,348.98,194.05Q348.15,196.55,347.36,198.43Q346.58,200.32,346.11,202.29Q345.63,204.27,344.96,205.78Q344.29,207.28,343.54,208.89Q342.79,210.50,341.97,211.38Q341.16,212.27,340.47,213.33Q339.78,214.39,339.32,215.54Q338.87,216.69,338.05,217.69Q337.24,218.70,336.27,219.38Q335.30,220.07,333.12,219.93Q330.94,219.80,330.31,218.60Q329.69,217.40,329.60,215.47Q329.50,213.53,329.86,212.28Q330.22,211.03,331.55,209.33Q332.87,207.62,333.88,206.94Q334.89,206.25,336.57,205.08Q338.25,203.91,339.55,203.43Q340.85,202.96,342.00,202.86Q343.16,202.76,344.30,202.71Q345.44,202.65,346.64,202.63Q347.83,202.61,349.96,203.01Q352.09,203.40,353.34,203.97Q354.59,204.54,355.68,205.36Q356.76,206.18,357.45,207.12Q358.14,208.07,359.61,208.27Q361.07,208.47,360.35,209.85Q359.63,211.22,359.59,209.74Q359.56,208.26,360.01,206.50Q360.46,204.73,360.40,204.00Q360.34,203.27,360.39,202.87Q360.45,202.47,360.60,202.09Q360.74,201.72,360.98,201.39Q361.21,201.06,361.51,200.80Q361.82,200.53,362.18,200.35Q362.54,200.17,362.93,200.08Q363.32,199.99,363.73,199.99Q364.13,200.00,364.52,200.10Q364.91,200.20,365.26,200.39Q365.62,200.58,365.92,200.85Q366.21,201.12,366.44,201.46Q366.66,201.79,366.80,202.17Q366.94,202.55,366.98,202.95Q367.03,203.35,366.99,204.99Q366.96,206.63,366.87,208.64Q366.78,210.64,366.71,211.78Q366.65,212.92,366.63,214.66Q366.60,216.39,366.62,217.65Q366.63,218.91,366.64,220.21Q366.64,221.52,366.29,220.22Q365.93,218.92,367.64,217.80Q369.35,216.68,370.62,215.47Q371.89,214.25,373.65,212.77Q375.40,211.28,376.77,209.79Q378.13,208.30,379.43,206.95Q380.73,205.61,381.59,204.40Q382.45,203.19,383.26,201.96Q384.06,200.73,384.60,199.56Q385.13,198.40,385.41,198.01Q385.70,197.62,385.82,197.46Q385.93,197.30,386.09,197.18Q386.24,197.05,386.42,196.96Q386.60,196.88,386.79,196.83Q386.99,196.79,387.18,196.80Q387.38,196.80,387.57,196.86Q387.77,196.91,387.94,197.01Q388.11,197.11,388.26,197.24Q388.40,197.38,388.51,197.54Q388.62,197.71,388.68,197.90Q388.75,198.09,388.76,198.28Q388.78,198.48,388.75,198.68Q388.72,198.87,388.65,199.06Q388.57,199.24,388.92,200.59Q389.27,201.94,389.40,203.21Q389.52,204.49,389.63,205.72Q389.73,206.94,389.78,207.43Q389.82,207.93,389.79,208.22Q389.75,208.51,389.65,208.79Q389.54,209.07,389.37,209.31Q389.20,209.55,388.98,209.75Q388.76,209.95,388.50,210.08Q388.24,210.22,387.95,210.29Q387.66,210.36,387.37,210.36Q387.07,210.36,386.78,210.29Q386.50,210.22,386.23,210.08Q385.97,209.95,385.75,209.75Q385.53,209.55,385.36,209.31Q385.19,209.07,385.09,208.79Q384.98,208.51,384.95,208.22Q384.91,207.93,385.59,206.73Q386.28,205.54,386.81,204.00Q387.33,202.47,387.74,201.38Q388.14,200.29,388.95,198.57Q389.76,196.85,389.75,196.49Q389.74,196.14,389.84,195.84Q389.93,195.55,390.10,195.29Q390.26,195.03,390.48,194.81Q390.71,194.60,390.97,194.44Q391.24,194.29,391.53,194.20Q391.83,194.12,392.14,194.10Q392.45,194.09,392.75,194.15Q393.05,194.21,393.33,194.34Q393.61,194.47,393.85,194.67Q394.09,194.86,394.27,195.11Q394.46,195.35,394.58,195.64Q394.70,195.92,394.75,196.22Q394.80,196.53,394.78,196.84Q394.76,197.14,394.75,198.45Q394.74,199.75,394.71,200.99Q394.68,202.23,394.59,203.77Q394.51,205.30,394.49,206.60Q394.46,207.91,394.39,209.46Q394.33,211.01,394.38,212.87Q394.44,214.74,394.54,216.12Q394.64,217.50,393.53,216.97Q392.42,216.43,393.84,215.07Q395.26,213.71,395.81,212.57Q396.36,211.44,397.16,210.27Q397.96,209.10,398.97,207.85Q399.98,206.60,401.62,205.60Q403.26,204.60,403.34,204.59Q403.43,204.57,403.74,204.59Q404.06,204.60,404.36,204.69Q404.66,204.77,404.93,204.93Q405.20,205.09,405.43,205.30Q405.66,205.52,405.83,205.79Q405.99,206.05,406.09,206.35Q406.19,206.65,406.22,206.96Q406.25,207.27,406.20,207.58Q406.15,207.89,406.02,208.18Q405.90,208.47,405.71,208.72Q405.52,208.97,405.28,209.17Q405.04,209.37,404.76,209.51Q404.47,209.64,404.16,209.71Q403.86,209.77,405.08,208.68Q406.31,207.59,406.36,208.77Q406.40,209.94,405.30,209.70Q404.19,209.46,405.52,208.15Q406.85,206.85,408.52,205.57Q410.20,204.29,411.85,201.82Q413.50,199.34,414.96,196.63Q416.42,193.92,417.78,190.84Q419.14,187.76,420.45,184.26Q421.77,180.77,422.75,176.88Q423.73,172.98,424.62,169.25Q425.51,165.52,426.37,162.14Q427.23,158.75,428.08,155.76Q428.92,152.77,429.45,149.90Q429.98,147.02,430.43,144.77Q430.88,142.51,430.96,140.43Q431.04,138.35,430.95,136.91Q430.86,135.46,430.66,133.33Q430.46,131.19,430.30,129.75Q430.14,128.32,430.06,127.73Q429.98,127.15,430.00,126.97Q430.02,126.80,430.08,126.63Q430.15,126.46,430.25,126.31Q430.35,126.16,430.49,126.05Q430.62,125.93,430.78,125.84Q430.94,125.76,431.11,125.72Q431.29,125.67,431.47,125.67Q431.65,125.67,431.82,125.72Q432.00,125.76,432.15,125.84Q432.31,125.93,432.45,126.05Q432.58,126.17,432.68,126.31Q432.79,126.46,432.85,126.63Q432.91,126.80,432.93,126.97Q432.96,127.15,432.67,128.35Q432.39,129.56,432.45,130.91Q432.52,132.26,431.82,133.80Q431.12,135.34,430.73,137.25Q430.35,139.16,429.91,141.81Q429.47,144.45,429.36,145.91Q429.24,147.36,429.10,149.26Q428.96,151.15,428.60,152.98Q428.23,154.81,428.08,156.66Q427.92,158.51,427.89,160.21Q427.86,161.91,427.90,163.25Q427.94,164.60,427.89,166.46Q427.84,168.32,427.86,171.21Q427.89,174.09,427.93,175.46Q427.97,176.83,428.02,178.09Q428.07,179.35,428.11,180.59Q428.15,181.82,428.27,183.21Q428.38,184.59,428.48,185.91Q428.57,187.22,428.69,188.48Q428.81,189.75,428.91,190.98Q429.01,192.20,429.09,193.42Q429.17,194.64,429.21,195.84Q429.25,197.03,429.32,198.29Q429.39,199.55,429.41,199.98Q429.44,200.41,429.39,200.75Q429.35,201.09,429.23,201.42Q429.11,201.74,428.91,202.03Q428.71,202.31,428.46,202.54Q428.20,202.77,427.89,202.93Q427.58,203.09,427.25,203.17Q426.91,203.26,426.57,203.26Q426.22,203.26,425.88,203.17Q425.55,203.09,425.24,202.93Q424.94,202.77,424.68,202.54Q424.42,202.31,424.22,202.03Q424.03,201.74,423.90,201.42Q423.78,201.09,423.74,200.75Q423.70,200.41,423.76,198.49Q423.82,196.58,424.21,195.24Q424.59,193.90,425.45,192.06Q426.32,190.22,426.82,189.17Q427.32,188.13,428.04,186.68Q428.76,185.23,429.71,183.61Q430.65,182.00,432.19,180.96Q433.73,179.93,433.83,179.89Q433.93,179.86,434.28,179.81Q434.63,179.77,434.98,179.81Q435.33,179.84,435.66,179.96Q435.99,180.08,436.28,180.28Q436.57,180.48,436.81,180.74Q437.04,181.00,437.21,181.31Q437.38,181.62,437.47,181.96Q437.56,182.30,437.56,182.65Q437.56,183.00,437.48,183.34Q437.40,183.69,437.24,184.00Q437.08,184.31,436.85,184.58Q436.62,184.85,436.34,185.05Q436.05,185.25,435.72,185.38Q435.39,185.51,436.44,184.10Q437.49,182.68,438.26,183.69Q439.04,184.69,439.19,186.30Q439.34,187.90,439.38,189.22Q439.42,190.55,439.44,191.80Q439.46,193.04,439.49,194.25Q439.53,195.45,438.02,194.83Q436.51,194.21,437.92,193.30Q439.34,192.38,441.01,192.16Q442.67,191.95,444.09,191.32Q445.50,190.70,446.96,190.10Q448.42,189.50,449.50,188.93Q450.58,188.35,452.40,187.85Q454.22,187.34,456.14,186.83Q458.07,186.32,460.14,185.71Q462.21,185.10,464.96,184.43Q467.71,183.77,470.55,183.07Q473.40,182.37,476.58,181.64Q479.77,180.91,482.69,179.86Q485.61,178.82,489.13,177.96Q492.66,177.10,496.60,175.99Q500.53,174.89,504.58,173.71Q508.63,172.53,513.01,171.33Q517.40,170.13,522.17,168.61Q526.93,167.10,532.10,165.50Q537.28,163.90,541.64,162.59Q546.01,161.27,550.47,160.03Q554.93,158.78,559.10,157.25Q563.27,155.72,567.08,154.42Q570.89,153.12,574.60,152.17Q578.32,151.23,581.10,150.69Q583.88,150.14,586.40,149.40Q588.92,148.66,590.75,147.82Q592.58,146.98,594.27,146.40Q595.96,145.82,599.01,145.45Q602.06,145.09,602.06,145.10Q602.06,145.10,602.06,145.11Q602.06,145.11,600.23,145.52Q598.39,145.92,597.31,146.32Q596.23,146.71,594.53,147.15Q592.84,147.58,590.94,148.34Q589.05,149.10,586.51,149.85Q583.96,150.60,581.20,151.14Q578.44,151.69,574.74,152.63Q571.04,153.57,567.24,154.87Q563.44,156.18,559.25,157.72Q555.07,159.26,550.61,160.52Q546.16,161.77,541.80,163.10Q537.44,164.43,532.28,166.04Q527.11,167.66,522.34,169.20Q517.57,170.74,513.20,171.98Q508.83,173.22,504.79,174.44Q500.76,175.67,496.83,176.85Q492.90,178.02,489.46,178.95Q486.01,179.89,483.07,181.08Q480.12,182.27,477.01,183.17Q473.90,184.08,471.14,185.01Q468.38,185.94,465.84,186.90Q463.30,187.86,461.36,188.84Q459.42,189.82,457.52,190.77Q455.63,191.73,454.40,192.21Q453.17,192.68,451.01,193.93Q448.85,195.19,447.52,196.14Q446.19,197.09,444.20,197.54Q442.20,198.00,441.00,198.82Q439.81,199.64,438.02,200.07Q436.23,200.49,434.70,198.79Q433.17,197.09,433.20,195.86Q433.23,194.64,433.27,193.31Q433.32,191.98,433.34,190.43Q433.36,188.87,433.55,187.69Q433.74,186.50,432.84,185.19Q431.94,183.88,432.94,181.87Q433.93,179.86,434.28,179.81Q434.63,179.77,434.98,179.80Q435.33,179.84,435.66,179.96Q435.99,180.08,436.28,180.28Q436.57,180.48,436.81,180.74Q437.04,181.00,437.21,181.31Q437.38,181.62,437.47,181.96Q437.56,182.30,437.56,182.65Q437.56,183.00,437.48,183.34Q437.40,183.69,437.24,184.00Q437.08,184.31,436.85,184.58Q436.62,184.85,436.34,185.05Q436.05,185.25,435.72,185.38Q435.40,185.51,435.14,185.43Q434.89,185.35,434.27,186.53Q433.64,187.70,432.80,189.33Q431.96,190.96,431.19,192.56Q430.41,194.16,429.86,195.41Q429.31,196.66,429.37,198.54Q429.44,200.41,429.39,200.75Q429.35,201.09,429.23,201.42Q429.11,201.74,428.91,202.03Q428.71,202.31,428.46,202.54Q428.20,202.77,427.89,202.93Q427.58,203.09,427.25,203.17Q426.91,203.26,426.57,203.26Q426.22,203.26,425.89,203.17Q425.55,203.09,425.24,202.93Q424.94,202.77,424.68,202.54Q424.42,202.31,424.22,202.03Q424.03,201.74,423.90,201.42Q423.78,201.09,423.74,200.75Q423.70,200.41,423.72,199.98Q423.75,199.55,423.82,198.29Q423.88,197.03,423.92,195.84Q423.96,194.64,424.04,193.42Q424.12,192.20,424.22,190.98Q424.33,189.75,424.44,188.48Q424.56,187.22,424.66,185.91Q424.75,184.59,424.87,183.21Q424.98,181.82,425.03,180.59Q425.07,179.35,425.11,178.09Q425.16,176.83,425.20,175.46Q425.24,174.09,425.27,171.20Q425.30,168.32,425.25,166.45Q425.20,164.59,425.25,163.23Q425.30,161.88,425.31,160.14Q425.32,158.41,425.32,156.35Q425.32,154.29,425.58,152.70Q425.83,151.11,425.74,149.14Q425.64,147.17,425.69,145.42Q425.74,143.66,426.00,142.26Q426.26,140.86,426.72,138.42Q427.18,135.98,427.47,134.82Q427.75,133.65,428.30,131.84Q428.86,130.03,429.42,128.59Q429.98,127.15,430.00,126.97Q430.02,126.80,430.08,126.63Q430.15,126.46,430.25,126.31Q430.35,126.17,430.49,126.05Q430.62,125.93,430.78,125.84Q430.94,125.76,431.11,125.72Q431.29,125.67,431.47,125.67Q431.65,125.67,431.82,125.72Q431.99,125.76,432.15,125.84Q432.31,125.93,432.45,126.05Q432.58,126.17,432.68,126.31Q432.79,126.46,432.85,126.63Q432.91,126.80,432.93,126.97Q432.96,127.15,432.88,127.73Q432.79,128.32,432.63,129.76Q432.47,131.20,432.25,133.34Q432.03,135.49,431.88,136.94Q431.74,138.39,431.60,140.50Q431.46,142.62,431.04,144.88Q430.62,147.14,430.12,150.05Q429.63,152.96,428.83,155.96Q428.04,158.95,427.26,162.34Q426.47,165.74,425.67,169.50Q424.88,173.25,424.01,177.25Q423.15,181.25,422.00,184.84Q420.85,188.44,419.71,191.68Q418.57,194.92,417.39,197.90Q416.21,200.88,414.67,204.03Q413.12,207.18,411.81,208.88Q410.50,210.58,409.44,211.78Q408.38,212.99,406.98,213.88Q405.58,214.77,404.40,214.65Q403.21,214.53,402.08,212.72Q400.95,210.92,401.01,209.44Q401.06,207.96,402.24,206.27Q403.43,204.57,403.74,204.59Q404.06,204.60,404.36,204.69Q404.66,204.77,404.93,204.93Q405.20,205.09,405.43,205.30Q405.66,205.52,405.83,205.78Q405.99,206.05,406.09,206.35Q406.19,206.65,406.22,206.96Q406.25,207.27,406.20,207.58Q406.15,207.89,406.02,208.18Q405.90,208.47,405.71,208.72Q405.52,208.97,405.28,209.17Q405.04,209.37,404.76,209.51Q404.47,209.64,404.16,209.71Q403.86,209.77,403.71,209.88Q403.56,209.98,402.74,210.82Q401.92,211.66,400.76,213.63Q399.61,215.60,398.02,217.07Q396.44,218.54,394.89,219.58Q393.33,220.62,392.13,220.25Q390.94,219.87,390.42,218.69Q389.89,217.50,389.99,216.12Q390.09,214.74,390.15,212.87Q390.21,211.01,390.14,209.46Q390.07,207.91,390.05,206.60Q390.02,205.30,389.94,203.77Q389.85,202.23,389.82,201.00Q389.79,199.76,389.76,197.95Q389.74,196.14,389.84,195.84Q389.93,195.55,390.10,195.29Q390.26,195.03,390.48,194.81Q390.71,194.60,390.97,194.44Q391.24,194.29,391.53,194.20Q391.83,194.12,392.14,194.10Q392.45,194.09,392.75,194.15Q393.05,194.21,393.33,194.34Q393.61,194.47,393.85,194.67Q394.09,194.86,394.27,195.11Q394.46,195.35,394.58,195.64Q394.70,195.92,394.75,196.22Q394.80,196.53,394.78,196.84Q394.76,197.14,394.72,197.27Q394.68,197.40,394.04,199.01Q393.40,200.62,392.74,201.97Q392.08,203.32,391.80,204.56Q391.53,205.80,390.67,206.86Q389.82,207.93,389.79,208.22Q389.75,208.51,389.65,208.79Q389.54,209.07,389.37,209.31Q389.20,209.55,388.98,209.75Q388.76,209.95,388.50,210.08Q388.24,210.22,387.95,210.29Q387.66,210.36,387.37,210.36Q387.07,210.36,386.78,210.29Q386.50,210.22,386.23,210.08Q385.97,209.95,385.75,209.75Q385.53,209.55,385.36,209.31Q385.19,209.07,385.09,208.79Q384.98,208.51,384.95,208.22Q384.91,207.93,384.99,207.00Q385.08,206.07,385.19,204.85Q385.30,203.62,385.43,202.30Q385.55,200.98,385.63,199.30Q385.70,197.62,385.82,197.46Q385.93,197.30,386.09,197.18Q386.24,197.05,386.42,196.96Q386.60,196.88,386.79,196.83Q386.99,196.79,387.18,196.80Q387.38,196.80,387.57,196.86Q387.76,196.91,387.94,197.01Q388.11,197.10,388.26,197.24Q388.40,197.38,388.51,197.54Q388.62,197.71,388.68,197.90Q388.75,198.09,388.76,198.28Q388.78,198.48,388.75,198.68Q388.72,198.87,388.65,199.06Q388.57,199.24,388.18,199.58Q387.79,199.92,387.02,201.07Q386.25,202.22,385.36,203.46Q384.48,204.69,383.49,205.98Q382.50,207.27,381.31,208.58Q380.12,209.90,378.87,211.65Q377.62,213.41,376.29,215.13Q374.96,216.85,373.67,218.65Q372.39,220.45,371.23,221.62Q370.08,222.79,368.54,224.07Q367.01,225.35,364.50,224.79Q361.99,224.24,361.36,222.88Q360.72,221.52,360.73,220.21Q360.74,218.91,360.75,217.65Q360.76,216.39,360.74,214.66Q360.71,212.92,360.65,211.78Q360.59,210.64,360.50,208.64Q360.40,206.63,360.37,204.95Q360.34,203.27,360.39,202.87Q360.45,202.47,360.60,202.09Q360.74,201.72,360.98,201.39Q361.21,201.06,361.51,200.80Q361.82,200.53,362.18,200.35Q362.54,200.17,362.93,200.08Q363.32,199.99,363.73,199.99Q364.13,200.00,364.52,200.10Q364.91,200.20,365.26,200.39Q365.62,200.58,365.92,200.85Q366.21,201.12,366.44,201.46Q366.66,201.79,366.80,202.17Q366.94,202.55,366.98,202.95Q367.03,203.35,367.00,204.25Q366.97,205.14,366.57,206.70Q366.17,208.26,366.13,209.77Q366.10,211.28,363.95,212.87Q361.81,214.46,360.68,214.38Q359.55,214.30,357.83,213.82Q356.11,213.34,355.08,212.83Q354.05,212.31,352.80,211.13Q351.54,209.95,350.48,209.22Q349.42,208.49,348.14,208.46Q346.86,208.42,345.36,208.38Q343.86,208.34,342.63,208.25Q341.41,208.15,340.12,208.76Q338.82,209.36,337.59,210.18Q336.36,210.99,335.26,212.31Q334.16,213.62,333.79,215.29Q333.42,216.96,335.07,215.98Q336.72,214.99,337.39,214.07Q338.07,213.14,339.82,211.49Q341.57,209.84,342.41,208.29Q343.25,206.74,344.06,205.40Q344.87,204.07,345.42,202.06Q345.98,200.05,346.84,198.22Q347.70,196.40,348.53,193.90Q349.37,191.41,350.26,188.77Q351.15,186.14,352.26,182.99Q353.37,179.84,354.16,177.00Q354.95,174.16,355.68,171.39Q356.41,168.61,356.92,166.05Q357.42,163.48,358.22,160.62Q359.02,157.77,359.79,154.92Q360.56,152.07,361.26,149.27Q361.95,146.48,362.35,143.79Q362.76,141.09,363.27,138.96Q363.78,136.82,364.57,134.52Q365.35,132.22,366.55,129.27Q367.76,126.31,367.78,126.32Z" fill="#000" />
  <path d="M565.39,156.53Q565.39,156.53,565.39,155.30Q565.38,154.08,565.24,152.89Q565.11,151.69,565.10,151.66Q565.10,151.64,565.14,151.31Q565.18,150.98,565.30,150.67Q565.42,150.36,565.61,150.09Q565.79,149.81,566.04,149.60Q566.29,149.38,566.58,149.22Q566.88,149.07,567.20,148.99Q567.52,148.91,567.85,148.91Q568.18,148.91,568.50,148.99Q568.82,149.07,569.12,149.22Q569.41,149.38,569.66,149.60Q569.91,149.82,570.09,150.09Q570.28,150.36,570.40,150.67Q570.52,150.98,570.56,151.31Q570.60,151.64,570.83,153.12Q571.06,154.59,569.87,156.78Q568.68,158.97,568.67,158.97Q568.67,158.97,568.66,158.97Q568.66,158.97,567.53,156.46Q566.41,153.94,565.76,152.79Q565.10,151.64,565.14,151.31Q565.18,150.98,565.30,150.67Q565.42,150.36,565.61,150.09Q565.79,149.82,566.04,149.60Q566.29,149.38,566.58,149.22Q566.88,149.07,567.20,148.99Q567.52,148.91,567.85,148.91Q568.18,148.91,568.50,148.99Q568.82,149.07,569.12,149.22Q569.41,149.38,569.66,149.60Q569.91,149.82,570.09,150.09Q570.28,150.36,570.40,150.67Q570.52,150.98,570.56,151.31Q570.60,151.64,570.52,152.16Q570.45,152.69,570.21,153.79Q569.97,154.89,568.91,155.72Q567.85,156.55,566.63,156.54Q565.41,156.54,565.39,156.53Z" fill="#000" />
  <path d="M565.40,155.73Q565.40,155.73,563.92,156.39Q562.45,157.05,560.83,156.22Q559.21,155.38,559.42,153.35Q559.62,151.31,560.80,151.95Q561.97,152.59,563.59,153.25Q565.21,153.91,567.34,155.62Q569.47,157.34,569.47,157.34Q569.47,157.35,569.47,157.35Q569.47,157.36,567.53,158.02Q565.60,158.68,564.31,158.70Q563.01,158.72,561.76,158.15Q560.50,157.58,559.36,157.01Q558.22,156.44,557.72,154.26Q557.23,152.08,559.58,151.71Q561.93,151.34,562.71,152.25Q563.48,153.16,564.44,154.44Q565.40,155.71,565.40,155.73Z" fill="#000" />
  <ellipse cx="565.40" cy="157.35" rx="0.80" ry="0.86" transform="rotate(108.92 565.40 157.35)" fill="#000" />
  <ellipse cx="568.67" cy="158.17" rx="0.81" ry="0.70" transform="rotate(114.51 568.67 158.17)" fill="#000" />
  <ellipse cx="568.67" cy="158.17" rx="0.81" ry="0.70" transform="rotate(114.51 568.67 158.17)" fill="#000" />
  <ellipse cx="568.67" cy="158.17" rx="0.81" ry="0.70" transform="rotate(114.51 568.67 158.17)" fill="#000" />
  <ellipse cx="568.67" cy="158.17" rx="0.81" ry="0.70" transform="rotate(114.51 568.67 158.17)" fill="#000" />
  <ellipse cx="568.67" cy="158.17" rx="0.81" ry="0.70" transform="rotate(114.51 568.67 158.17)" fill="#000" />
  <path d="M497.62,192.46Q497.62,192.46,498.93,192.37Q500.23,192.29,501.08,193.22Q501.93,194.15,503.00,195.10Q504.06,196.04,504.91,196.84Q505.77,197.64,506.52,198.64Q507.28,199.65,507.91,200.58Q508.53,201.52,506.06,201.88Q503.59,202.25,503.57,201.06Q503.54,199.87,503.50,198.73Q503.46,197.59,504.43,195.15Q505.40,192.71,506.17,191.37Q506.94,190.02,507.88,188.90Q508.82,187.78,509.65,186.80Q510.48,185.82,512.58,185.47Q514.69,185.13,514.69,185.13Q514.70,185.13,514.70,185.14Q514.70,185.14,514.19,186.72Q513.68,188.30,513.44,189.41Q513.20,190.52,512.28,192.52Q511.36,194.52,510.54,196.48Q509.71,198.45,509.66,199.68Q509.61,200.91,509.40,202.36Q509.19,203.81,506.81,204.34Q504.43,204.88,503.76,203.83Q503.09,202.78,502.13,201.67Q501.16,200.56,500.25,199.55Q499.33,198.54,498.38,196.81Q497.44,195.08,497.52,193.78Q497.61,192.47,497.62,192.46Z" fill="#000" />
  <ellipse cx="517.22" cy="199.00" rx="0.66" ry="0.81" transform="rotate(18.63 517.22 199.00)" fill="#000" />
  <ellipse cx="517.22" cy="199.00" rx="0.66" ry="0.81" transform="rotate(18.63 517.22 199.00)" fill="#000" />
  <path d="M540.89,179.41Q540.89,179.41,539.54,179.52Q538.18,179.63,536.80,179.95Q535.42,180.26,533.91,180.37Q532.39,180.48,533.03,179.40Q533.66,178.31,533.09,179.29Q532.52,180.28,532.92,181.36Q533.32,182.44,533.37,183.67Q533.43,184.89,533.43,186.07Q533.43,187.24,533.46,188.49Q533.49,189.74,533.51,190.96Q533.53,192.19,531.98,191.12Q530.43,190.06,531.84,190.93Q533.25,191.80,533.82,190.00Q534.38,188.19,534.29,186.76Q534.19,185.34,534.18,184.11Q534.16,182.89,535.12,180.87Q536.08,178.84,537.31,178.31Q538.55,177.77,538.55,177.77Q538.55,177.77,538.55,177.76Q538.55,177.76,538.55,177.76Q538.55,177.76,538.55,177.76Q538.55,177.76,538.55,177.76Q538.56,177.76,538.56,177.76Q538.56,177.76,538.56,177.76Q538.56,177.76,538.56,177.76Q538.56,177.76,538.56,177.76Q538.56,177.76,538.56,177.76Q538.57,177.77,538.57,177.77Q538.57,177.77,538.57,177.77Q538.57,177.77,538.57,177.77Q538.57,177.77,538.56,177.77Q538.56,177.77,538.55,177.77Q538.55,177.77,538.55,177.77Q538.55,177.77,538.55,177.76Q538.55,177.76,538.55,177.76Q538.55,177.76,538.55,177.76Q538.55,177.76,538.55,177.76Q538.56,177.76,538.56,177.76Q538.56,177.76,538.56,177.76Q538.56,177.76,538.56,177.76Q538.56,177.76,538.56,177.76Q538.56,177.76,538.56,177.76Q538.57,177.77,538.57,177.77Q538.57,177.77,538.57,177.77Q538.57,177.77,538.57,177.77Q538.57,177.77,540.51,179.01Q542.45,180.24,541.86,181.38Q541.27,182.51,540.23,183.09Q539.19,183.67,540.14,182.87Q541.09,182.07,541.09,183.30Q541.09,184.52,541.06,185.76Q541.04,186.99,540.97,188.13Q540.91,189.27,540.48,190.59Q540.05,191.91,539.22,193.17Q538.38,194.42,537.92,195.45Q537.46,196.48,535.77,197.39Q534.09,198.30,532.51,197.79Q530.93,197.28,529.73,196.02Q528.53,194.75,529.34,195.61Q530.14,196.47,528.59,194.33Q527.03,192.19,527.06,190.96Q527.08,189.74,527.11,188.49Q527.13,187.24,527.14,186.07Q527.14,184.89,527.19,183.67Q527.25,182.44,527.30,181.20Q527.36,179.95,528.03,178.59Q528.70,177.23,530.55,176.14Q532.39,175.05,533.97,175.17Q535.54,175.28,536.66,175.53Q537.78,175.78,538.87,176.26Q539.97,176.74,540.44,178.07Q540.91,179.39,540.89,179.41Z" fill="#000" />
  <path d="M533.56,188.38Q533.56,188.38,535.38,188.53Q537.21,188.68,538.30,189.00Q539.39,189.31,540.81,190.32Q542.23,191.34,543.60,193.53Q544.97,195.72,544.97,195.72Q544.97,195.73,544.96,195.73Q544.96,195.74,543.35,195.78Q541.73,195.82,540.38,195.26Q539.02,194.71,537.82,194.23Q536.61,193.75,535.68,192.74Q534.76,191.74,534.15,190.07Q533.54,188.39,533.56,188.38Z" fill="#000" />
  <ellipse cx="553.15" cy="190.02" rx="0.63" ry="0.78" transform="rotate(1.74 553.15 190.02)" fill="#000" />
  <ellipse cx="553.15" cy="189.20" rx="0.81" ry="0.88" transform="rotate(116.38 553.15 189.20)" fill="#000" />
  <ellipse cx="552.11" cy="189.05" rx="0.64" ry="0.76" transform="rotate(9.39 552.11 189.05)" fill="#000" />
  <path d="M519.67,198.19Q519.67,198.19,518.85,198.58Q518.03,198.96,518.03,198.96Q518.03,198.96,518.03,198.96Q518.03,198.96,518.02,198.96Q518.02,198.95,518.02,198.95Q518.02,198.95,518.02,198.95Q518.02,198.95,518.02,198.95Q518.02,198.95,518.02,198.95Q518.02,198.95,518.02,198.94Q518.02,198.94,518.02,198.94Q518.02,198.94,518.02,198.94Q518.02,198.94,518.02,198.94Q518.03,198.94,518.03,198.94Q518.03,198.94,518.03,198.94Q518.03,198.94,518.03,198.94Q518.03,198.95,518.03,198.95Q518.03,198.96,518.03,198.96Q518.03,198.96,518.03,198.96Q518.03,198.96,518.02,198.96Q518.02,198.95,518.02,198.95Q518.02,198.95,518.02,198.95Q518.02,198.95,518.02,198.95Q518.02,198.95,518.02,198.95Q518.02,198.95,518.02,198.94Q518.02,198.94,518.02,198.94Q518.02,198.94,518.02,198.94Q518.02,198.94,518.02,198.94Q518.03,198.94,518.03,198.94Q518.03,198.94,518.03,198.94Q518.03,198.94,518.85,198.56Q519.67,198.17,519.67,198.19Z" fill="#000" />
  <path d="M564.59,168.78Q564.59,168.78,565.63,169.70Q566.67,170.61,566.94,172.03Q567.21,173.46,567.29,174.66Q567.38,175.87,567.44,177.09Q567.50,178.32,567.55,179.54Q567.61,180.77,567.66,182.02Q567.72,183.27,568.87,182.55Q570.02,181.82,571.25,180.86Q572.47,179.89,574.21,180.46Q575.95,181.03,575.95,181.03Q575.95,181.04,575.95,181.04Q575.95,181.05,574.62,183.39Q573.29,185.73,572.52,186.62Q571.74,187.51,570.09,187.96Q568.44,188.41,567.20,188.38Q565.95,188.34,564.40,187.71Q562.86,187.07,562.15,185.17Q561.45,183.27,561.50,182.02Q561.56,180.77,561.61,179.54Q561.67,178.32,561.73,177.09Q561.79,175.87,561.88,174.66Q561.96,173.46,562.23,172.03Q562.49,170.61,563.53,169.70Q564.57,168.78,564.59,168.78Z" fill="#000" />
</svg>